<?xml version="1.0" encoding="UTF-8"?>
<!DOCTYPE svg PUBLIC "-//W3C//DTD SVG 1.1//EN" "http://www.w3.org/Graphics/SVG/1.1/DTD/svg11.dtd">
<!-- Creator: CorelDRAW X8 -->
<svg xmlns="http://www.w3.org/2000/svg" xml:space="preserve" width="50px" height="47px" version="1.1" style="shape-rendering:geometricPrecision; text-rendering:geometricPrecision; image-rendering:optimizeQuality; fill-rule:evenodd; clip-rule:evenodd"
viewBox="0 0 36 34"
 xmlns:xlink="http://www.w3.org/1999/xlink">
 <defs>
  <style type="text/css"/>
 </defs>
 <g id="Layer_x0020_1">
  <metadata id="CorelCorpID_0Corel-Layer"/>
  <g id="_2699023395152">
   <path class="fil0" d="M28 30c-1,1 -3,3 -5,4l13 0 0 -4 -8 0z"/>
   <path class="fil0" d="M31 20c0,-7 -7,-13 -14,-13 -4,0 -8,2 -10,5 -1,0 -1,-1 -2,-1 0,-1 -1,-1 -1,-2 0,-2 2,-3 3,-3 1,0 1,0 1,0l-1 2 3 -1 3 -1 0 0 -2 -6 -1 2c-1,0 -2,0 -3,0 -3,0 -6,3 -6,7 0,2 1,4 2,5 1,0 1,1 2,1 -1,2 -1,3 -1,5 0,2 0,3 0,5l-2 1 6 2 2 -6 -2 1c0,-1 -1,-2 -1,-3 0,-5 5,-10 10,-10 5,0 10,5 10,10 0,6 -5,10 -10,10l-17 0 0 4 17 0c7,0 14,-6 14,-14z"/>
  </g>
 </g>
</svg>
