<?xml version="1.0" encoding="UTF-8"?>
<!DOCTYPE svg PUBLIC "-//W3C//DTD SVG 1.1//EN" "http://www.w3.org/Graphics/SVG/1.1/DTD/svg11.dtd">
<!-- Creator: CorelDRAW X8 -->
<svg xmlns="http://www.w3.org/2000/svg" xml:space="preserve" width="64px" height="64px" version="1.1" style="shape-rendering:geometricPrecision; text-rendering:geometricPrecision; image-rendering:optimizeQuality; fill-rule:evenodd; clip-rule:evenodd"
viewBox="0 0 572 572"
 xmlns:xlink="http://www.w3.org/1999/xlink">
 <g id="Layer_x0020_1">
  <metadata id="CorelCorpID_0Corel-Layer"/>
  <g id="_2319709878592">
   <rect fill="none" width="572" height="572"/>
   <polygon fill="goldenrod" points="34,0 538,0 492,514 287,572 81,514 "/>
   <polygon fill="darkgoldenrod" points="287,41 492,41 453,482 287,528 "/>
   <path fill="#E6E6E6" d="M411 132l10 99 -64 0 -4 -50 -66 -17 0 -66 124 34zm-124 122l137 43 -13 141 -124 35 0 -66 66 -18 4 -50 -70 -24 0 -61z"/>
   <path fill="white" d="M162 438l-9 -99 63 0 5 50 66 18 0 66 -125 -35zm125 -123l-138 -43 13 -140 125 -34 0 66 -66 17 -5 49 71 24 0 61z"/>
  </g>
 </g>
</svg>
